<?xml version="1.0" encoding="UTF-8"?>
<svg width="25px" height="25px" viewBox="0 0 25 25" version="1.1" xmlns="http://www.w3.org/2000/svg" xmlns:xlink="http://www.w3.org/1999/xlink">
    <!-- Generator: Sketch 64 (93537) - https://sketch.com -->
    <title>Icon / Delete</title>
    <desc>Created with Sketch.</desc>
    <defs>
        <path fill="#0D1E45" d="M21.6481481,2.56687764 L16.8529101,2.56687764 L16.8529101,0.369198312 C16.8529101,0.165295715 16.6953806,0 16.5010582,0 L8.4989418,0 C8.30466535,0 8.14720087,0.165343944 8.14708995,0.369198312 L8.14708995,2.56687764 L3.35185185,2.56687764 C3.15752944,2.56687764 3,2.73217335 3,2.93607595 L3,5.60295359 C3,5.80680795 3.1575754,5.97203551 3.35185185,5.9721519 L4.20071958,5.9721519 L5.16177778,24.6506329 C5.17192227,24.8465412 5.32624838,25 5.51322751,25 L19.4867725,25 C19.6737547,25 19.8280787,24.8465558 19.8380212,24.6506329 L20.7992804,5.9721519 L21.6481481,5.9721519 C21.8424706,5.9721519 22,5.80685618 22,5.60295359 L22,2.93607595 C22,2.83814131 21.9630005,2.74420173 21.8970039,2.67495147 C21.8310073,2.60570121 21.7414814,2.56682163 21.6481481,2.56687764 Z M8.85079365,0.738396624 L16.1492063,0.738396624 L16.1492063,2.56687764 L8.85079365,2.56687764 L8.85079365,0.738396624 Z M19.153418,24.2616034 L5.84658201,24.2616034 L4.90542857,5.9721519 L20.0947725,5.9721519 L19.153418,24.2616034 Z M9.0150582,9.73987342 C9.20938061,9.73987342 9.36691005,9.90516913 9.36691005,10.1090717 L9.36691005,10.1090717 L9.36691005,18.999789 C9.36679913,19.2036434 9.20933465,19.368871 9.0150582,19.3689873 C8.82073579,19.3689873 8.66320635,19.2036916 8.66320635,18.999789 L8.66320635,18.999789 L8.66320635,10.1090717 C8.66320635,9.90516913 8.82073579,9.73987342 9.0150582,9.73987342 Z M12.5,9.73987342 C12.6943224,9.73987342 12.8518519,9.90516913 12.8518519,10.1090717 L12.8518519,10.1090717 L12.8518519,18.999789 C12.8517409,19.2036434 12.6942764,19.368871 12.5,19.3689873 C12.3057236,19.368871 12.1482591,19.2036434 12.1481481,18.999789 L12.1481481,18.999789 L12.1481481,10.1090717 C12.1481481,9.90516913 12.3056776,9.73987342 12.5,9.73987342 Z M15.9849418,9.73987342 C16.1792642,9.73987342 16.3367937,9.90516913 16.3367937,10.1090717 L16.3367937,10.1090717 L16.3367937,18.999789 C16.3367937,19.2036916 16.1792642,19.3689873 15.9849418,19.3689873 C15.7906194,19.3689873 15.6330899,19.2036916 15.6330899,18.999789 L15.6330899,18.999789 L15.6330899,10.1090717 C15.6330899,9.90516913 15.7906194,9.73987342 15.9849418,9.73987342 Z M21.2962963,3.30527426 L21.2962963,5.23375527 L3.7037037,5.23375527 L3.7037037,3.30527426 L21.2962963,3.30527426 Z" id="path-1"></path>
    </defs>
    <g id="Icon-/-Delete" stroke="none" stroke-width="1" fill="none" fill-rule="evenodd">
        <mask id="mask-2" fill="white">
            <use xlink:href="#path-1"></use>
        </mask>
        <use id="Shape" fill="#0D1E45" fill-rule="nonzero" xlink:href="#path-1"></use>
        <g id="Colors-/-Dark-Blue" mask="url(#mask-2)" fill="#0D1E45" fill-rule="nonzero">
            <rect id="Black" x="0" y="0" width="25" height="25"></rect>
        </g>
    </g>
</svg>
