<?xml version="1.0" encoding="UTF-8"?>
<svg width="25px" height="25px" viewBox="0 0 25 25" version="1.1" xmlns="http://www.w3.org/2000/svg" xmlns:xlink="http://www.w3.org/1999/xlink">
    <defs>
        <path fill="#3D71DE" d="M22.2481016,18.0137024 C21.5804219,17.0432294 20.6667031,15.7143222 20.6667031,11.9318267 L20.6667031,10.22728 C20.6667031,6.63111266 18.2021563,3.5886034 14.8333516,2.6077966 L14.8333516,2.27274664 C14.8333516,1.01926564 13.7863594,0 12.5000547,0 C11.21375,0 10.1667031,1.01926564 10.1667031,2.27274664 L10.1667031,2.6077966 C6.79800781,3.5886034 4.33335156,6.63111266 4.33335156,10.22728 L4.33335156,11.9318267 C4.33335156,15.7143222 3.41963281,17.0432294 2.75195312,18.0137024 C2.36569531,18.5757767 2,19.1067962 2,19.88636 C2,21.7387228 5.96457031,22.388741 9.17888281,22.6126226 C9.6295625,24.0179681 10.9525078,25 12.5,25 C14.0474922,25 15.3704375,24.0179681 15.8211172,22.6126226 C19.0354297,22.388741 23,21.7387228 23,19.88636 C23,19.1067962 22.6343047,18.5757767 22.2481016,18.0137024 Z M11.3333516,2.27274664 C11.3333516,1.64632574 11.8563281,1.13639995 12.5,1.13639995 C13.1436719,1.13639995 13.6667031,1.64627248 13.6667031,2.27274664 L13.6667031,2.36351375 C13.2846016,2.30992707 12.8971406,2.27274664 12.5000547,2.27274664 C12.1029688,2.27274664 11.7155078,2.30992707 11.3334062,2.36351375 L11.3334062,2.27274664 L11.3333516,2.27274664 Z M12.5000547,23.8636533 C11.6281172,23.8636533 10.8623281,23.3949562 10.4645313,22.6839472 C11.2911328,22.7179316 12.0089063,22.7273066 12.5000547,22.7273066 C12.9913125,22.7273066 13.7090312,22.7179316 14.5356875,22.6839472 C14.1378359,23.3949562 13.3719922,23.8636533 12.5000547,23.8636533 Z M12.5000547,21.5909067 C7.15774219,21.5909067 3.16670312,20.690906 3.16670312,19.88636 C3.16670312,19.4707702 3.34673437,19.1905321 3.7215625,18.646249 C4.42905469,17.6164365 5.50005469,16.0600256 5.50005469,11.9318267 L5.50005469,10.22728 C5.50005469,6.46752945 8.64004687,3.40909333 12.5000547,3.40909333 C16.3600625,3.40909333 19.5000547,6.46752945 19.5000547,10.22728 L19.5000547,11.9318267 C19.5000547,16.0600256 20.571,17.6164365 21.2785469,18.646249 C21.653375,19.1905854 21.8334063,19.4707702 21.8334063,19.88636 C21.8334063,20.6909593 17.8423125,21.5909067 12.5000547,21.5909067 Z" id="path-1"></path>
    </defs>
    <g id="Icon-/-Bell" stroke="none" stroke-width="1" fill="none" fill-rule="evenodd">
        <mask id="mask-2" fill="white">
            <use xlink:href="#path-1"></use>
        </mask>
        <use id="Bell" fill="#3D71DE" fill-rule="nonzero" xlink:href="#path-1"></use>
        <g id="Colors-/-Dark-Blue" mask="url(#mask-2)" fill="#3D71DE" fill-rule="nonzero">
            <rect id="Black" x="0" y="0" width="25" height="25"></rect>
        </g>
    </g>
</svg>
