<?xml version="1.0" encoding="UTF-8"?>
<svg width="25px" height="25px" viewBox="0 0 25 25" version="1.1" xmlns="http://www.w3.org/2000/svg" xmlns:xlink="http://www.w3.org/1999/xlink">
    <!-- Generator: Sketch 64 (93537) - https://sketch.com -->
    <title>Icon / Download</title>
    <desc>Created with Sketch.</desc>
    <defs>
        <path d="M12.5,0 C5.60761719,0 0,5.60761719 0,12.5 C0,19.3923828 5.60761719,25 12.5,25 C19.3923828,25 25,19.3923828 25,12.5 C25,5.60761719 19.3923828,0 12.5,0 Z M12.5,1.04165039 C18.8181641,1.04165039 23.9583496,6.18183594 23.9583496,12.5 C23.9583496,18.8181641 18.8181641,23.9583496 12.5,23.9583496 C6.18183594,23.9583496 1.04165039,18.8181641 1.04165039,12.5 C1.04165039,6.18183594 6.18183594,1.04165039 12.5,1.04165039 Z M12.4999512,5.20830078 C12.2120605,5.20830078 11.9791016,5.44125977 11.9791016,5.72915039 L11.9791016,18.0134766 L8.18066406,14.2150391 C7.97719727,14.0115723 7.64760742,14.0115723 7.44418945,14.2150391 C7.24072266,14.4185059 7.24072266,14.7480957 7.44418945,14.9515137 L12.1316895,19.6390137 C12.2333984,19.7407227 12.3666992,19.7916016 12.4999512,19.7916016 C12.6332031,19.7916016 12.7664551,19.7407227 12.8682129,19.6390137 L17.5557129,14.9515137 C17.7591797,14.7480469 17.7591797,14.418457 17.5557129,14.2150391 C17.3522461,14.0116211 17.0227051,14.0116211 16.8192383,14.2150879 L13.0208008,18.0135254 L13.0208008,5.72915039 C13.0208008,5.44125977 12.7878418,5.20830078 12.4999512,5.20830078 Z" id="path-1"></path>
    </defs>
    <g id="Icon-/-Download" stroke="none" stroke-width="1" fill="none" fill-rule="evenodd">
        <mask id="mask-2" fill="white">
            <use xlink:href="#path-1"></use>
        </mask>
        <g id="Shape" fill-rule="nonzero"></g>
        <g id="Colors-/-Dark-Blue" mask="url(#mask-2)" fill="#0D1E45" fill-rule="nonzero">
            <rect id="Black" x="0" y="0" width="25" height="25"></rect>
        </g>
    </g>
</svg>