<svg width="196" height="196" viewBox="0 0 196 196" fill="none" xmlns="http://www.w3.org/2000/svg">
<mask id="mask0" mask-type="alpha" maskUnits="userSpaceOnUse" x="54" y="23" width="88" height="150">
<path d="M138.022 105.374L72.9676 169.425C68.8205 173.498 62.1096 173.498 57.9751 169.425C53.8483 165.352 53.8483 158.745 57.9751 154.674L115.538 97.9987L57.9853 41.333C53.8483 37.2599 53.8483 30.6553 57.9853 26.5822C62.1197 22.4992 68.8306 22.4992 72.9676 26.5822L138.022 90.6334C140.091 92.6686 141.12 95.3299 141.12 97.9987C141.12 100.668 140.091 103.349 138.022 105.374Z" fill="white"/>
</mask>
<g mask="url(#mask0)">
<path d="M90.6259 138.022L26.5748 72.9676C22.5017 68.8205 22.5017 62.1096 26.5748 57.9751C30.6478 53.8483 37.2549 53.8483 41.3255 57.9751L98.0012 115.538L154.667 57.9853C158.74 53.8483 165.345 53.8483 169.418 57.9853C173.501 62.1197 173.501 68.8306 169.418 72.9676L105.367 138.022C103.331 140.091 100.67 141.12 98.0012 141.12C95.3324 141.12 92.6512 140.091 90.6259 138.022Z" fill="black"/>
<path d="M196 0H0V196H196V0Z" fill="#0D1E45"/>
</g>
</svg>
