<svg width="196" height="196" viewBox="0 0 196 196" fill="none" xmlns="http://www.w3.org/2000/svg">
<mask id="mask0" mask-type="alpha" maskUnits="userSpaceOnUse" x="54" y="23" width="88" height="150">
<path d="M57.9783 105.374L123.032 169.425C127.18 173.498 133.89 173.498 138.025 169.425C142.152 165.352 142.152 158.745 138.025 154.674L80.4619 97.9987L138.015 41.333C142.152 37.2599 142.152 30.6553 138.015 26.5822C133.88 22.4992 127.169 22.4992 123.032 26.5822L57.9783 90.6334C55.9085 92.6686 54.88 95.3299 54.88 97.9987C54.88 100.668 55.9085 103.349 57.9783 105.374Z" fill="white"/>
</mask>
<g mask="url(#mask0)">
<path d="M105.374 138.022L169.425 72.9676C173.498 68.8205 173.498 62.1096 169.425 57.9751C165.352 53.8483 158.745 53.8483 154.675 57.9751L97.9988 115.538L41.333 57.9853C37.2599 53.8483 30.6553 53.8483 26.5823 57.9853C22.4993 62.1197 22.4993 68.8306 26.5823 72.9676L90.6334 138.022C92.6686 140.091 95.33 141.12 97.9988 141.12C100.668 141.12 103.349 140.091 105.374 138.022Z" fill="black"/>
<path d="M-3.8147e-06 0H196V196H-3.8147e-06V0Z" fill="#0D1E45"/>
</g>
</svg>
