<?xml version="1.0" encoding="UTF-8"?>
<svg width="25px" height="25px" viewBox="0 0 25 25" version="1.1" xmlns="http://www.w3.org/2000/svg" xmlns:xlink="http://www.w3.org/1999/xlink">
    <!-- Generator: Sketch 64 (93537) - https://sketch.com -->
    <title>Icon / Calendar</title>
    <desc>Created with Sketch.</desc>
    <defs>
        <path fill="#0D1E45" d="M20.8245849,2.83325198 C20.8213297,2.81880698 20.8125814,2.80741375 20.8083089,2.79378255 C20.8011881,2.77038573 20.7918294,2.74780271 20.7804362,2.72623698 C20.7674154,2.70141604 20.7517497,2.67822266 20.733846,2.65665688 C20.719401,2.63875323 20.7035319,2.62207031 20.6862386,2.60660807 C20.6652832,2.58890786 20.6422933,2.57364906 20.6178792,2.56083172 C20.5973307,2.54842125 20.5755615,2.53784177 20.5529785,2.52909344 C20.5259196,2.52054849 20.4978434,2.51485188 20.4695638,2.51200359 C20.4522705,2.50691729 20.4345703,2.50284833 20.4166667,2.5 L18.3158366,2.5 C18.2084147,1.04960125 17.5354004,0 16.6666667,0 C15.7979329,0 15.1249186,1.04960125 15.0174968,2.5 L14.1491699,2.5 C14.041748,1.04960125 13.3687338,0 12.5,0 C11.6312663,0 10.958252,1.04960125 10.8508301,2.5 L9.98250323,2.5 C9.87508135,1.04960125 9.20206708,0 8.33333333,0 C7.46459958,0 6.79158531,1.04960125 6.68416344,2.5 L5.81583656,2.5 C5.70841469,1.04960125 5.03540042,0 4.16666667,0 C3.29793292,0 2.62491865,1.04960125 2.51749677,2.5 L0.416666667,2.5 C0.186564115,2.5 5.68434189e-14,2.68656411 5.68434189e-14,2.91666667 L5.68434189e-14,24.5833333 C5.68434189e-14,24.8134359 0.186564115,25 0.416666667,25 L20.4166667,25 C20.6467692,25 20.8333333,24.8134359 20.8333333,24.5833333 L20.8333333,23.3333333 L24.5833333,23.3333333 C24.7084554,23.3333333 24.8268636,23.2769776 24.9058024,23.1801351 C24.9849447,23.0830892 25.016276,22.9559326 24.9912516,22.833252 L20.8245849,2.83325198 Z M16.6666667,0.833333333 C16.96757,0.833333333 17.3874919,1.47176104 17.4800619,2.5 L15.8548991,2.5 C15.9458415,1.47176104 16.3657633,0.833333333 16.6666667,0.833333333 Z M12.5,0.833333333 C12.8009033,0.833333333 13.2208252,1.47176104 13.3133952,2.5 L11.6882324,2.5 C11.7791748,1.47176104 12.1990967,0.833333333 12.5,0.833333333 Z M8.33333333,0.833333333 C8.63423667,0.833333333 9.05415854,1.47176104 9.14672854,2.5 L7.52156573,2.5 C7.61250813,1.47176104 8.03243,0.833333333 8.33333333,0.833333333 Z M4.16666667,0.833333333 C4.46757,0.833333333 4.88749188,1.47176104 4.98006188,2.5 L3.35489906,2.5 C3.44584146,1.47176104 3.86576333,0.833333333 4.16666667,0.833333333 Z M0.833333333,3.33333333 L2.51749677,3.33333333 C2.62491865,4.78373208 3.29793292,5.83333333 4.16666667,5.83333333 C4.39676922,5.83333333 4.58333333,5.64676922 4.58333333,5.41666667 C4.58333333,5.18656411 4.39676922,5 4.16666667,5 C3.86576333,5 3.44584146,4.36157229 3.35327146,3.33333333 L6.68416344,3.33333333 C6.79300943,4.78373208 7.46459958,5.83333333 8.33333333,5.83333333 C8.56343589,5.83333333 8.75,5.64676922 8.75,5.41666667 C8.75,5.18656411 8.56343589,5 8.33333333,5 C8.03243,5 7.61250813,4.36157229 7.51993813,3.33333333 L10.8508301,3.33333333 C10.9596761,4.78373208 11.6312663,5.83333333 12.5,5.83333333 C12.7301026,5.83333333 12.9166667,5.64676922 12.9166667,5.41666667 C12.9166667,5.18656411 12.7301026,5 12.5,5 C12.1990967,5 11.7791748,4.36157229 11.6866048,3.33333333 L15.0174968,3.33333333 C15.1263428,4.78373208 15.7979329,5.83333333 16.6666667,5.83333333 C16.8967692,5.83333333 17.0833333,5.64676922 17.0833333,5.41666667 C17.0833333,5.18656411 16.8967692,5 16.6666667,5 C16.3657633,5 15.9458415,4.36157229 15.8532715,3.33333333 L20,3.33333333 L20,7.5 L0.833333333,7.5 L0.833333333,3.33333333 Z M20,24.1666667 L0.833333333,24.1666667 L0.833333333,8.33333333 L20,8.33333333 L20,24.1666667 Z M20.8333333,6.95841469 L24.0712484,22.5 L20.8333333,22.5 L20.8333333,6.95841469 Z M9.16666667,19.1666667 C9.39676922,19.1666667 9.58333333,19.3532308 9.58333333,19.5833333 L9.58333333,19.5833333 L9.58333333,21.25 C9.58333333,21.4801026 9.39676922,21.6666667 9.16666667,21.6666667 L9.16666667,21.6666667 L7.5,21.6666667 C7.26989745,21.6666667 7.08333333,21.4801026 7.08333333,21.25 L7.08333333,21.25 L7.08333333,19.5833333 C7.08333333,19.3532308 7.26989745,19.1666667 7.5,19.1666667 L7.5,19.1666667 Z M13.3333333,19.1666667 C13.5634359,19.1666667 13.75,19.3532308 13.75,19.5833333 L13.75,19.5833333 L13.75,21.25 C13.75,21.4801026 13.5634359,21.6666667 13.3333333,21.6666667 L13.3333333,21.6666667 L11.6666667,21.6666667 C11.4365641,21.6666667 11.25,21.4801026 11.25,21.25 L11.25,21.25 L11.25,19.5833333 C11.25,19.3532308 11.4365641,19.1666667 11.6666667,19.1666667 L11.6666667,19.1666667 Z M5,19.1666667 C5.23010255,19.1666667 5.41666667,19.3532308 5.41666667,19.5833333 L5.41666667,19.5833333 L5.41666667,21.25 C5.41666667,21.4801026 5.23010255,21.6666667 5,21.6666667 L5,21.6666667 L3.33333333,21.6666667 C3.10323078,21.6666667 2.91666667,21.4801026 2.91666667,21.25 L2.91666667,21.25 L2.91666667,19.5833333 C2.91666667,19.3532308 3.10323078,19.1666667 3.33333333,19.1666667 L3.33333333,19.1666667 Z M17.5,19.1666667 C17.7301026,19.1666667 17.9166667,19.3532308 17.9166667,19.5833333 L17.9166667,19.5833333 L17.9166667,21.25 C17.9166667,21.4801026 17.7301026,21.6666667 17.5,21.6666667 L17.5,21.6666667 L15.8333333,21.6666667 C15.6032308,21.6666667 15.4166667,21.4801026 15.4166667,21.25 L15.4166667,21.25 L15.4166667,19.5833333 C15.4166667,19.3532308 15.6032308,19.1666667 15.8333333,19.1666667 L15.8333333,19.1666667 Z M8.75,20 L7.91666667,20 L7.91666667,20.8333333 L8.75,20.8333333 L8.75,20 Z M12.9166667,20 L12.0833333,20 L12.0833333,20.8333333 L12.9166667,20.8333333 L12.9166667,20 Z M4.58333333,20 L3.75,20 L3.75,20.8333333 L4.58333333,20.8333333 L4.58333333,20 Z M17.0833333,20 L16.25,20 L16.25,20.8333333 L17.0833333,20.8333333 L17.0833333,20 Z M9.16666667,15 C9.39676922,15 9.58333333,15.1865641 9.58333333,15.4166667 L9.58333333,15.4166667 L9.58333333,17.0833333 C9.58333333,17.3134359 9.39676922,17.5 9.16666667,17.5 L9.16666667,17.5 L7.5,17.5 C7.26989745,17.5 7.08333333,17.3134359 7.08333333,17.0833333 L7.08333333,17.0833333 L7.08333333,15.4166667 C7.08333333,15.1865641 7.26989745,15 7.5,15 L7.5,15 Z M13.3333333,15 C13.5634359,15 13.75,15.1865641 13.75,15.4166667 L13.75,15.4166667 L13.75,17.0833333 C13.75,17.3134359 13.5634359,17.5 13.3333333,17.5 L13.3333333,17.5 L11.6666667,17.5 C11.4365641,17.5 11.25,17.3134359 11.25,17.0833333 L11.25,17.0833333 L11.25,15.4166667 C11.25,15.1865641 11.4365641,15 11.6666667,15 L11.6666667,15 Z M5,15 C5.23010255,15 5.41666667,15.1865641 5.41666667,15.4166667 L5.41666667,15.4166667 L5.41666667,17.0833333 C5.41666667,17.3134359 5.23010255,17.5 5,17.5 L5,17.5 L3.33333333,17.5 C3.10323078,17.5 2.91666667,17.3134359 2.91666667,17.0833333 L2.91666667,17.0833333 L2.91666667,15.4166667 C2.91666667,15.1865641 3.10323078,15 3.33333333,15 L3.33333333,15 Z M17.5,15 C17.7301026,15 17.9166667,15.1865641 17.9166667,15.4166667 L17.9166667,15.4166667 L17.9166667,17.0833333 C17.9166667,17.3134359 17.7301026,17.5 17.5,17.5 L17.5,17.5 L15.8333333,17.5 C15.6032308,17.5 15.4166667,17.3134359 15.4166667,17.0833333 L15.4166667,17.0833333 L15.4166667,15.4166667 C15.4166667,15.1865641 15.6032308,15 15.8333333,15 L15.8333333,15 Z M8.75,15.8333333 L7.91666667,15.8333333 L7.91666667,16.6666667 L8.75,16.6666667 L8.75,15.8333333 Z M12.9166667,15.8333333 L12.0833333,15.8333333 L12.0833333,16.6666667 L12.9166667,16.6666667 L12.9166667,15.8333333 Z M4.58333333,15.8333333 L3.75,15.8333333 L3.75,16.6666667 L4.58333333,16.6666667 L4.58333333,15.8333333 Z M17.0833333,15.8333333 L16.25,15.8333333 L16.25,16.6666667 L17.0833333,16.6666667 L17.0833333,15.8333333 Z M9.16666667,10.8333333 C9.39676922,10.8333333 9.58333333,11.0198974 9.58333333,11.25 L9.58333333,11.25 L9.58333333,12.9166667 C9.58333333,13.1467692 9.39676922,13.3333333 9.16666667,13.3333333 L9.16666667,13.3333333 L7.5,13.3333333 C7.26989745,13.3333333 7.08333333,13.1467692 7.08333333,12.9166667 L7.08333333,12.9166667 L7.08333333,11.25 C7.08333333,11.0198974 7.26989745,10.8333333 7.5,10.8333333 L7.5,10.8333333 Z M13.3333333,10.8333333 C13.5634359,10.8333333 13.75,11.0198974 13.75,11.25 L13.75,11.25 L13.75,12.9166667 C13.75,13.1467692 13.5634359,13.3333333 13.3333333,13.3333333 L13.3333333,13.3333333 L11.6666667,13.3333333 C11.4365641,13.3333333 11.25,13.1467692 11.25,12.9166667 L11.25,12.9166667 L11.25,11.25 C11.25,11.0198974 11.4365641,10.8333333 11.6666667,10.8333333 L11.6666667,10.8333333 Z M17.5,10.8333333 C17.7301026,10.8333333 17.9166667,11.0198974 17.9166667,11.25 L17.9166667,11.25 L17.9166667,12.9166667 C17.9166667,13.1467692 17.7301026,13.3333333 17.5,13.3333333 L17.5,13.3333333 L15.8333333,13.3333333 C15.6032308,13.3333333 15.4166667,13.1467692 15.4166667,12.9166667 L15.4166667,12.9166667 L15.4166667,11.25 C15.4166667,11.0198974 15.6032308,10.8333333 15.8333333,10.8333333 L15.8333333,10.8333333 Z M5,10.8333333 C5.23010255,10.8333333 5.41666667,11.0198974 5.41666667,11.25 L5.41666667,11.25 L5.41666667,12.9166667 C5.41666667,13.1467692 5.23010255,13.3333333 5,13.3333333 L5,13.3333333 L3.33333333,13.3333333 C3.10323078,13.3333333 2.91666667,13.1467692 2.91666667,12.9166667 L2.91666667,12.9166667 L2.91666667,11.25 C2.91666667,11.0198974 3.10323078,10.8333333 3.33333333,10.8333333 L3.33333333,10.8333333 Z M8.75,11.6666667 L7.91666667,11.6666667 L7.91666667,12.5 L8.75,12.5 L8.75,11.6666667 Z M12.9166667,11.6666667 L12.0833333,11.6666667 L12.0833333,12.5 L12.9166667,12.5 L12.9166667,11.6666667 Z M17.0833333,11.6666667 L16.25,11.6666667 L16.25,12.5 L17.0833333,12.5 L17.0833333,11.6666667 Z M4.58333333,11.6666667 L3.75,11.6666667 L3.75,12.5 L4.58333333,12.5 L4.58333333,11.6666667 Z" id="path-1"></path>
    </defs>
    <g id="Icon-/-Calendar" stroke="none" stroke-width="1" fill="none" fill-rule="evenodd">
        <mask id="mask-2" fill="white">
            <use xlink:href="#path-1"></use>
        </mask>
        <use id="Shape" fill="#0D1E45" fill-rule="nonzero" xlink:href="#path-1"></use>
        <g id="Colors-/-Dark-Blue" mask="url(#mask-2)" fill="#0D1E45" fill-rule="nonzero">
            <rect id="Black" x="0" y="0" width="25" height="25"></rect>
        </g>
    </g>
</svg>
