<?xml version="1.0" encoding="UTF-8"?>
<svg width="25px" height="25px" viewBox="0 0 25 25" version="1.1" xmlns="http://www.w3.org/2000/svg" xmlns:xlink="http://www.w3.org/1999/xlink">
    <!-- Generator: Sketch 64 (93537) - https://sketch.com -->
    <title>Icon / check</title>
    <desc>Created with Sketch.</desc>
    <defs>
        <path d="M2.238,13.8 C2.078,13.64 2,13.397 2,13.237 C2,13.077 2.078,12.839 2.238,12.679 L3.359,11.558 C3.68,11.237 4.16,11.237 4.48,11.558 L4.559,11.64 L8.961,16.358 C9.121,16.519 9.359,16.519 9.52,16.358 L20.238,5.237 L20.32,5.237 C20.641,4.921 21.121,4.921 21.441,5.237 L22.559,6.358 C22.879,6.679 22.879,7.159 22.559,7.479 L9.762,20.761 C9.602,20.921 9.441,20.999 9.199,20.999 C8.961,20.999 8.801,20.921 8.641,20.761 L2.398,14.038 L2.238,13.8 Z" id="path-1"></path>
    </defs>
    <g id="Icon-/-check" stroke="none" stroke-width="1" fill="none" fill-rule="evenodd">
        <mask id="mask-2" fill="white">
            <use xlink:href="#path-1"></use>
        </mask>
        <g id="Check"></g>
        <g id="Colors-/-Dark-Blue" mask="url(#mask-2)" fill="#0D1E45" fill-rule="nonzero">
            <rect id="Black" x="0" y="0" width="25" height="25"></rect>
        </g>
    </g>
</svg>