<?xml version="1.0" encoding="UTF-8"?>
<svg width="25px" height="25px" viewBox="0 0 25 25" version="1.1" xmlns="http://www.w3.org/2000/svg" xmlns:xlink="http://www.w3.org/1999/xlink">
    <!-- Generator: Sketch 64 (93537) - https://sketch.com -->
    <title>Icon / Click</title>
    <desc>Created with Sketch.</desc>
    <defs>
        <path d="M9.86841061,8.94209203 L22.29815,13.0855501 C22.5392145,13.165677 22.7208552,13.3645052 22.7794977,13.6119662 C22.8374567,13.8587436 22.7637751,14.1183628 22.584234,14.2979039 L20.5128468,16.3692911 L24.7854553,20.6425832 C25.0715393,20.9286672 25.0715393,21.3921927 24.7854553,21.6782768 L21.6783744,24.7853576 C21.3922416,25.0715393 20.9287649,25.0715393 20.6426808,24.7854064 L16.3693399,20.512798 L14.2979527,22.5841852 C14.1191441,22.7629938 13.8595249,22.8366755 13.612015,22.7794489 C13.364554,22.7208063 13.165677,22.5391168 13.0855989,22.2981011 L8.94214085,9.86836178 C8.85415255,9.6051293 8.92280491,9.31474837 9.11880105,9.11875223 C9.31406477,8.92348851 9.60517813,8.85195529 9.86841061,8.94209203 Z M6.93222825,12.1107451 C7.21831231,12.3968292 7.21831231,12.8603547 6.93222825,13.1464388 L3.82446382,16.2542032 C3.53837977,16.5402872 3.07490309,16.5402872 2.78877021,16.2542032 C2.50268616,15.9681191 2.50268616,15.5045936 2.78877021,15.2185096 L5.89653464,12.1107451 C6.1826187,11.8246611 6.6461442,11.8246611 6.93222825,12.1107451 Z M5.12695438,8.78906465 C5.53178846,8.78906465 5.85937643,9.11665262 5.85937643,9.5214867 C5.85937643,9.92632078 5.53178846,10.2539088 5.12695438,10.2539088 L0.732422054,10.2539088 C0.327587971,10.2539088 0,9.92632078 0,9.5214867 C0,9.11665262 0.327587971,8.78906465 0.732422054,8.78906465 L5.12695438,8.78906465 Z M3.82446382,2.78877021 L6.93222825,5.89653464 C7.21831231,6.1826187 7.21831231,6.6461442 6.93222825,6.93222825 C6.6461442,7.21836114 6.18266752,7.21836114 5.89658347,6.93227708 L2.78877021,3.82446382 C2.50268616,3.53837977 2.50268616,3.07485427 2.78877021,2.78877021 C3.07485427,2.50268616 3.53837977,2.50268616 3.82446382,2.78877021 Z M16.2541544,2.78881904 C16.5402384,3.07490309 16.5402384,3.5384286 16.2541544,3.82451265 L13.1463899,6.93227708 C12.8603059,7.21836114 12.3968292,7.21836114 12.1106963,6.93227708 C11.8246123,6.64619303 11.8246123,6.18266752 12.1106963,5.89658347 L15.2184607,2.78881904 C15.5045448,2.50273499 15.9680703,2.50273499 16.2541544,2.78881904 Z M9.5214867,0 C9.92632078,0 10.2539088,0.327587971 10.2539088,0.732422054 L10.2539088,5.12695438 C10.2539088,5.53178846 9.92632078,5.85937643 9.5214867,5.85937643 C9.11665262,5.85937643 8.78906465,5.53178846 8.78906465,5.12695438 L8.78906465,0.732422054 C8.78906465,0.327587971 9.11665262,0 9.5214867,0 Z" id="path-1"></path>
    </defs>
    <g id="Icon-/-Click" stroke="none" stroke-width="1" fill="none" fill-rule="evenodd">
        <mask id="mask-2" fill="white">
            <use xlink:href="#path-1"></use>
        </mask>
        <g id="Path-2" fill-rule="nonzero"></g>
        <g id="Colors-/-Dark-Blue" mask="url(#mask-2)" fill="#0D1E45" fill-rule="nonzero">
            <rect id="Black" x="0" y="0" width="25" height="25"></rect>
        </g>
    </g>
</svg>