<?xml version="1.0" encoding="UTF-8"?>
<svg width="25px" height="25px" viewBox="0 0 25 25" version="1.1" xmlns="http://www.w3.org/2000/svg" xmlns:xlink="http://www.w3.org/1999/xlink">
    <!-- Generator: Sketch 64 (93537) - https://sketch.com -->
    <title>Icon / Increase/Decrease</title>
    <desc>Created with Sketch.</desc>
    <defs>
        <path d="M21.7498127,14 C22.0893291,14 22.3820982,14.1102736 22.6290192,14.3297552 C22.8759402,14.5503023 23,14.8105373 23,15.1112591 C23,15.4119809 22.8759402,15.6719495 22.6290192,15.8924966 L22.6290192,15.8924966 L13.8792065,23.6702448 C13.6319859,23.8897264 13.3383177,24 13,24 C12.6616823,24 12.3692128,23.8897264 12.1210932,23.6702448 L12.1210932,23.6702448 L3.37098079,15.8924966 C3.12405981,15.6719495 3,15.4119809 3,15.1112591 C3,14.8105373 3.12405981,14.5503023 3.37098079,14.3297552 C3.61790177,14.1102736 3.91186959,14 4.25018729,14 L4.25018729,14 Z M13,1 C13.3383177,1 13.6319859,1.11027355 13.8792065,1.32975521 L22.6290192,9.1075034 C22.8759402,9.3280505 23,9.58801907 23,9.88874091 C23,10.1894627 22.8759402,10.4496977 22.6290192,10.6702448 C22.3820982,10.8897264 22.0893291,11 21.7498127,11 L4.25018729,11 C3.91186959,11 3.61790177,10.8897264 3.37098079,10.6702448 C3.12405981,10.4496977 3,10.1894627 3,9.88874091 C3,9.58801907 3.12405981,9.3280505 3.37098079,9.1075034 L12.1210932,1.32975521 C12.3692128,1.11027355 12.6616823,1 13,1 Z" id="path-1"></path>
    </defs>
    <g id="Icon-/-Increase/Decrease" stroke="none" stroke-width="1" fill="none" fill-rule="evenodd">
        <mask id="mask-2" fill="white">
            <use xlink:href="#path-1"></use>
        </mask>
        <use id="Icon-2" fill="#000000" xlink:href="#path-1"></use>
        <g id="Colors-/-Dark-Blue" mask="url(#mask-2)" fill="#0D1E45" fill-rule="nonzero">
            <rect id="Black" x="0" y="0" width="25" height="25"></rect>
        </g>
    </g>
</svg>