<?xml version="1.0" encoding="UTF-8"?>
<svg width="25px" height="25px" viewBox="0 0 25 25" version="1.1" xmlns="http://www.w3.org/2000/svg" xmlns:xlink="http://www.w3.org/1999/xlink">
    <!-- Generator: Sketch 64 (93537) - https://sketch.com -->
    <title>Icon / Draw</title>
    <desc>Created with Sketch.</desc>
    <defs>
        <path d="M22.1313958,1.00635355 C20.7872234,-0.335451185 18.6105037,-0.335451185 17.2663313,1.00635355 L16.0485047,2.23085258 L3.08482874,15.1876409 L3.05727805,15.2154068 C3.0506056,15.2220792 3.0506056,15.2291822 3.04350271,15.2291822 C3.02972736,15.2498452 3.00906434,15.2702929 2.99550422,15.2909559 C2.99550422,15.2978436 2.98840133,15.2978436 2.98840133,15.3047313 C2.97462598,15.3253943 2.96795353,15.3391696 2.95396296,15.3598327 C2.94729052,15.3667203 2.94729052,15.3733928 2.94040284,15.3804957 C2.93351517,15.4011587 2.9266275,15.414934 2.9195246,15.4355971 C2.9195246,15.4422695 2.91285215,15.4422695 2.91285215,15.4493724 L0.036603125,24.0985672 C-0.0477708639,24.3448015 0.0163706144,24.6175103 0.201692041,24.8002489 C0.331912141,24.9287471 0.507547792,25.0006371 0.69028634,25 C0.764974498,24.9987 0.839016979,24.987077 0.910476636,24.9655531 L9.55299901,22.0824164 C9.55967146,22.0824164 9.55967146,22.0824164 9.56677436,22.0757439 C9.58851356,22.0692868 9.6093918,22.0600314 9.62854818,22.047978 C9.63392916,22.0473323 9.63866441,22.0449646 9.64253875,22.0413056 C9.66298655,22.0275302 9.69053724,22.0135396 9.71120025,21.9997643 C9.73164799,21.9862042 9.75252629,21.9655412 9.77318931,21.9517658 C9.78007698,21.9446629 9.78674937,21.9446629 9.78674937,21.9379905 C9.79385232,21.9311028 9.80762767,21.9244304 9.81451534,21.9104398 L23.9960179,7.7289372 C25.3378226,6.38476487 25.3378226,4.20804511 23.9960179,2.864088 L22.1313958,1.00635355 Z M9.33280871,20.46532 L4.54372391,15.6764504 L16.5302113,3.68996298 L21.3192961,8.47883255 L9.33280871,20.46532 Z M3.86916245,16.9493784 L8.05299308,21.1329937 L1.77057469,23.2246938 L3.86916245,16.9493784 Z M23.0259322,6.765524 L22.2964847,7.50185929 L17.5071846,2.71255921 L18.2437351,1.9764392 C19.0493776,1.17144247 20.3552372,1.17144247 21.1610949,1.9764392 L23.0326047,3.84794899 C23.8322204,4.65725052 23.8292071,5.96009682 23.0259322,6.765524 Z" id="path-1"></path>
    </defs>
    <g id="Icon-/-Draw" stroke="none" stroke-width="1" fill="none" fill-rule="evenodd">
        <mask id="mask-2" fill="white">
            <use xlink:href="#path-1"></use>
        </mask>
        <g id="Shape" fill-rule="nonzero"></g>
        <g id="Colors-/-Dark-Blue" mask="url(#mask-2)" fill="#0D1E45" fill-rule="nonzero">
            <rect id="Black" x="0" y="0" width="25" height="25"></rect>
        </g>
    </g>
</svg>