<?xml version="1.0" encoding="UTF-8"?>
<svg width="25px" height="25px" viewBox="0 0 25 25" version="1.1" xmlns="http://www.w3.org/2000/svg" xmlns:xlink="http://www.w3.org/1999/xlink">
    <!-- Generator: Sketch 64 (93537) - https://sketch.com -->
    <title>Icon / Edit</title>
    <desc>Created with Sketch.</desc>
    <defs>
        <path d="M9.56746763,4.85056942 C9.82883549,4.85056942 10.0406654,5.06365545 10.0406654,5.3261581 C10.0406654,5.58884651 9.82883549,5.80174678 9.56746763,5.80174678 L9.56746763,5.80174678 L5.36598891,5.80174678 C4.58225508,5.80267565 3.94731977,6.44100483 3.94639556,7.22851282 L3.94639556,7.22851282 L3.94639556,19.6218708 C3.94731977,20.4095646 4.58225508,21.0478938 5.36598891,21.0486369 L5.36598891,21.0486369 L18.6434381,21.0486369 C19.4271719,21.0478938 20.0621072,20.4095646 20.0630314,19.6218708 L20.0630314,19.6218708 L20.0630314,15.3991635 C20.0630314,15.1364751 20.2748614,14.9235748 20.5362292,14.9235748 C20.797597,14.9235748 21.009427,15.1364751 21.009427,15.3991635 L21.009427,15.3991635 L21.009427,19.6220566 C21.0079483,20.9347557 19.9495379,21.9985138 18.6434381,22 L18.6434381,22 L5.36598891,22 C4.05988912,21.9985138 3.00147874,20.9347557 3,19.6220566 L3,19.6220566 L3,7.22851282 C3.00147874,5.91581373 4.05988912,4.85205563 5.36598891,4.85056942 L5.36598891,4.85056942 Z M17.810536,3.62685744 C18.6421442,2.79104752 19.9903882,2.79104752 20.8219963,3.62685744 L20.8219963,3.62685744 L21.3772643,4.18493103 C22.2075786,5.02129833 22.2075786,6.37523986 21.3772643,7.21160712 L21.3772643,7.21160712 L12.935305,15.6965922 C12.8774492,15.7547404 12.8057301,15.7967259 12.7269871,15.8186476 L12.7269871,15.8186476 L8.71903882,16.934609 C8.55471351,16.9803101 8.37874308,16.9336801 8.25804069,16.8125536 C8.13752308,16.6912414 8.09112756,16.5143818 8.13678376,16.3492262 L8.13678376,16.3492262 L9.2469501,12.3210272 C9.26876153,12.2418863 9.31053605,12.1698049 9.36839186,12.1116567 L9.36839186,12.1116567 Z M9.95434382,13.318463 L9.27208873,15.7935677 L11.7345656,15.1078654 L9.95434382,13.318463 Z M17.3086876,5.47645154 L10.3994455,12.4207894 L12.6275416,14.6603291 L19.5369686,7.71599122 L17.3086876,5.47645154 Z M20.1526802,4.29936956 C19.6907579,3.83511325 18.9417745,3.83511325 18.4798521,4.29936956 L18.4798521,4.29936956 L17.9778189,4.80375366 L20.2062847,7.0434791 L20.7081331,6.539095 C21.1693161,6.07446716 21.1693161,5.3222568 20.7081331,4.85744315 L20.7081331,4.85744315 Z" id="path-1"></path>
    </defs>
    <g id="Icon-/-Edit" stroke="none" stroke-width="1" fill="none" fill-rule="evenodd">
        <mask id="mask-2" fill="white">
            <use xlink:href="#path-1"></use>
        </mask>
        <use id="Icon" fill="#000000" fill-rule="nonzero" xlink:href="#path-1"></use>
    </g>
</svg>