<?xml version="1.0" encoding="UTF-8"?>
<svg width="25px" height="25px" viewBox="0 0 25 25" version="1.1" xmlns="http://www.w3.org/2000/svg" xmlns:xlink="http://www.w3.org/1999/xlink">
    <!-- Generator: Sketch 64 (93537) - https://sketch.com -->
    <title>Icon / Flag</title>
    <desc>Created with Sketch.</desc>
    <defs>
        <path fill="#0D1E45" d="M21.9616957,0.961463043 C19.432085,2.40569264 16.8946038,1.68164827 14.2077843,0.915102673 C11.4413448,0.125097608 8.58071196,-0.692683057 5.68392517,0.961463043 L5.43196443,1.1055204 L5.43196443,1.39556468 L5.43196443,12.5837994 L5.43196443,24.0000784 L3,24.0000784 L3,25 L8.86390121,25 L8.86390121,24.0000784 L6.43193678,24.0000784 L6.43193678,12.0260024 C8.8787284,10.7665034 11.3366912,11.4613504 13.9334304,12.203421 C15.5202448,12.6560058 17.1373229,13.1179338 18.7744584,13.1179338 C19.9926241,13.1179338 21.2220625,12.862114 22.4577973,12.1565528 L22.7097581,12.0124955 L22.7097581,0.534267219 L21.9616957,0.961463043 Z M21.709735,11.4251456 C19.2626387,12.6848478 16.8052344,11.9842121 14.2082413,11.2415829 C12.6214269,10.7889981 11.0043488,10.3270701 9.36721334,10.3270701 C8.39511815,10.3270701 7.41566014,10.4901692 6.43183522,10.9144199 L6.43183522,1.69287023 C8.87847451,0.433168101 11.3363357,1.13527634 13.9333289,1.87643291 C16.461467,2.59854771 19.068768,3.34264941 21.709735,2.20354518 L21.709735,11.4251456 L21.709735,11.4251456 Z" id="path-1"></path>
    </defs>
    <g id="Icon-/-Flag" stroke="none" stroke-width="1" fill="none" fill-rule="evenodd">
        <mask id="mask-2" fill="white">
            <use xlink:href="#path-1"></use>
        </mask>
        <use id="Shape" fill="#0D1E45" fill-rule="nonzero" xlink:href="#path-1"></use>
        <g id="Colors-/-Dark-Blue" mask="url(#mask-2)" fill="#0D1E45" fill-rule="nonzero">
            <rect id="Black" x="0" y="0" width="25" height="25"></rect>
        </g>
    </g>
</svg>
