<?xml version="1.0" encoding="UTF-8"?>
<svg width="25px" height="25px" viewBox="0 0 25 25" version="1.1" xmlns="http://www.w3.org/2000/svg" xmlns:xlink="http://www.w3.org/1999/xlink">
    <!-- Generator: Sketch 64 (93537) - https://sketch.com -->
    <title>Icon / Log</title>
    <desc>Created with Sketch.</desc>
    <defs>
        <path fill="#0D1E45" d="M3,3.40995681 L3,23.9293662 C3.00228855,24.52011 3.51266814,24.9985695 4.14205978,25 L20.8579402,25 C21.4888576,24.9985695 21.9992371,24.52011 22,23.9293662 L22,3.40995681 C21.9992371,2.81849772 21.4888576,2.34003814 20.8579402,2.339323 L15.3070868,2.339323 C15.123991,0.886064499 13.719494,-0.153101293 12.1692832,0.0185434128 C10.8708291,0.161580667 9.84701854,1.12207588 9.69367589,2.339323 L4.14205978,2.339323 C3.51190509,2.34003814 3.00076285,2.81849772 3,3.40995681 Z M21.2691426,23.9293662 C21.2691426,24.1432069 21.0845212,24.3162819 20.8564143,24.3162819 L4.14205978,24.3162819 C3.91395293,24.3162819 3.72933127,24.1432069 3.72933127,23.9293662 L3.72933127,6.71697813 L21.2721942,6.71697813 L21.2691426,23.9293662 Z M12.5003814,0.676514783 C13.5333466,0.677945247 14.4099175,1.383119 14.5708893,2.339323 L10.4397912,2.339323 C10.5992371,1.38669489 11.4712307,0.682236274 12.5003814,0.676514783 Z M9.18100775,19.0582324 C9.35113428,18.9581064 9.57618934,19.0045934 9.6845211,19.1647952 C9.79132696,19.3242817 9.74021268,19.5359769 9.5693233,19.636103 L9.5693233,19.636103 L7.24782173,21.3382463 C7.18297517,21.3840182 7.10439652,21.4097649 7.02429217,21.4111952 L7.02429217,21.4111952 L6.9701263,21.4111952 C6.87247522,21.3968917 6.78474198,21.3453982 6.72752451,21.2695884 L6.72752451,21.2695884 L6.15382444,20.5014783 C6.03786379,20.346998 6.07906024,20.1338726 6.24384643,20.0258794 C6.40863262,19.9178863 6.63597662,19.9550761 6.75117442,20.1102715 L6.75117442,20.1102715 L7.10363367,20.5815791 L9.12302742,19.1011436 C9.14057415,19.0846943 9.16040943,19.0703906 9.18100775,19.0582324 Z M18.978157,20.488605 C19.1787993,20.488605 19.3420598,20.6409396 19.3420598,20.8290337 C19.3420598,21.018558 19.1787993,21.1708926 18.978157,21.1708926 L18.978157,21.1708926 L10.3619754,21.1708926 C10.1605701,21.1708926 9.99807265,21.018558 9.99807265,20.8290337 C9.99807265,20.6409396 10.1605701,20.488605 10.3619754,20.488605 L10.3619754,20.488605 Z M9.13752255,15.5237818 C9.30001999,15.4122129 9.52812685,15.4436809 9.6471391,15.5960157 C9.76691419,15.7476352 9.73258379,15.961476 9.5693233,16.0737602 L9.5693233,16.0737602 L7.24782173,17.7751884 C7.18297517,17.8223906 7.10439652,17.8481373 7.02429217,17.8481373 L7.02429217,17.8481373 L6.9701263,17.8481373 C6.87247522,17.8338336 6.78474198,17.7830553 6.72752451,17.7072456 L6.72752451,17.7072456 L6.1515357,16.9348445 C6.0363379,16.7803642 6.07600884,16.5672386 6.24155788,16.4585303 C6.40634407,16.3505373 6.63368788,16.3884421 6.74964853,16.5429224 L6.74964853,16.5429224 L7.10134512,17.0142302 L9.12073868,15.5359401 C9.12607902,15.5316489 9.13218221,15.528073 9.13752255,15.5237818 Z M18.978157,16.9255469 C19.1787993,16.9255469 19.3420598,17.0785968 19.3420598,17.267406 C19.3420598,17.4555001 19.1787993,17.6092652 18.978157,17.6092652 L18.978157,17.6092652 L10.3619754,17.6092652 C10.1605701,17.6092652 9.99807265,17.4555001 9.99807265,17.267406 C9.99807265,17.0785968 10.1605701,16.9255469 10.3619754,16.9255469 L10.3619754,16.9255469 Z M9.13752255,12.0029199 C9.30001999,11.8899204 9.52812685,11.9228191 9.6471391,12.0744385 C9.76691419,12.2267732 9.73258379,12.4406139 9.5693233,12.552183 L9.5693233,12.552183 L7.24782173,14.253611 C7.18297517,14.3008134 7.10439652,14.3265601 7.02429217,14.3272752 L7.02429217,14.3272752 L6.9701263,14.3272752 C6.87247522,14.3129715 6.78474198,14.2614781 6.72752451,14.1849531 L6.72752451,14.1849531 L6.15382444,13.4061153 C6.13170042,13.3839445 6.11415369,13.3581979 6.09965856,13.3317359 C6.00963658,13.1622368 6.08287488,12.9569783 6.26291905,12.8725864 C6.44220037,12.7889095 6.66115224,12.8575674 6.75117442,13.0263515 L6.75117442,13.0263515 L7.10363367,13.4976591 L9.12073868,12.015078 C9.12607902,12.0107868 9.13218221,12.0064958 9.13752255,12.0029199 Z M18.978157,13.3632041 C19.1787993,13.3632041 19.3420598,13.5162541 19.3420598,13.7050632 C19.3420598,13.8938724 19.1787993,14.0469222 18.978157,14.0469222 L18.978157,14.0469222 L10.3619754,14.0469222 C10.1605701,14.0469222 9.99807265,13.8938724 9.99807265,13.7050632 C9.99807265,13.5162541 10.1605701,13.3632041 10.3619754,13.3632041 L10.3619754,13.3632041 Z M9.20542052,8.44915938 C9.37936149,8.35403946 9.60212801,8.40982408 9.70283068,8.5736017 C9.80353335,8.73666417 9.74402732,8.94549856 9.5693233,9.04061829 L9.5693233,9.04061829 L7.24782173,10.7413313 C7.18297517,10.7885335 7.10439652,10.8142802 7.02429217,10.8142802 L7.02429217,10.8142802 L6.9701263,10.8142802 C6.87247522,10.7999765 6.78474198,10.7491984 6.72752451,10.6726735 L6.72752451,10.6726735 L6.15382444,9.91028479 C6.03786379,9.75580456 6.07906024,9.54267914 6.24384643,9.43468597 C6.40863262,9.32597765 6.63597662,9.3645978 6.75117442,9.51907804 L6.75117442,9.51907804 L7.10363367,9.99038565 L9.12302742,8.50923484 C9.14744019,8.48563374 9.17490456,8.46489338 9.20542052,8.44915938 Z M18.978157,9.79871573 C19.1787993,9.79871573 19.3420598,9.95105036 19.3420598,10.1405749 C19.3420598,10.3286687 19.1787993,10.4817187 18.978157,10.4817187 L18.978157,10.4817187 L10.3619754,10.4817187 C10.1605701,10.4817187 9.99807265,10.3286687 9.99807265,10.1405749 C9.99807265,9.95105036 10.1605701,9.79871573 10.3619754,9.79871573 L10.3619754,9.79871573 Z M20.8579402,3.02161062 C21.0868097,3.02161062 21.2721942,3.19611607 21.2721942,3.40995681 L21.2721942,6.03326006 L3.72933127,6.03326006 L3.72933127,3.40995681 C3.72933127,3.19611607 3.91395293,3.02161062 4.14205978,3.02161062 L20.8579402,3.02161062 Z M17.8147359,4.38904677 L7.18678981,4.38904677 C6.98538447,4.38904677 6.82212398,4.54209672 6.82212398,4.7309059 C6.82212398,4.91899993 6.98538447,5.07204971 7.18678981,5.07204971 L17.8147359,5.07204971 C18.0153784,5.07204971 18.1778758,4.91899993 18.1778758,4.7309059 C18.1778758,4.54209672 18.0153784,4.38904677 17.8147359,4.38904677 Z" id="path-1"></path>
    </defs>
    <g id="Icon-/-Log" stroke="none" stroke-width="1" fill="none" fill-rule="evenodd">
        <mask id="mask-2" fill="white">
            <use xlink:href="#path-1"></use>
        </mask>
        <use id="Shape" fill="#0D1E45" fill-rule="nonzero" xlink:href="#path-1"></use>
        <g id="Colors-/-Dark-Blue" mask="url(#mask-2)" fill="#0D1E45" fill-rule="nonzero">
            <rect id="Black" x="0" y="0" width="25" height="25"></rect>
        </g>
    </g>
</svg>
