<?xml version="1.0" encoding="UTF-8"?>
<svg width="25px" height="25px" viewBox="0 0 25 25" version="1.1" xmlns="http://www.w3.org/2000/svg" xmlns:xlink="http://www.w3.org/1999/xlink">
    <!-- Generator: Sketch 64 (93537) - https://sketch.com -->
    <title>Icon / Maximize</title>
    <desc>Created with Sketch.</desc>
    <defs>
        <path d="M2.86464692,25 C1.28440859,25 -2.84217094e-14,23.7155914 -2.84217094e-14,22.1353531 L-2.84217094e-14,2.86464692 C-2.84217094e-14,1.28440859 1.28440859,0 2.86464692,0 L22.1353531,0 C23.7155914,0 25,1.28440859 25,2.86464692 L25,22.1353531 C25,23.7155914 23.7155914,25 22.1353531,25 L2.86464692,25 Z M1.5625,22.1353531 C1.5625,22.8530884 2.14691162,23.4375 2.86464692,23.4375 L7.812,23.437 L7.8125,17.1875 L1.562,17.187 L1.5625,22.1353531 Z M22.1353531,1.5625 L2.86464692,1.5625 C2.14691162,1.5625 1.5625,2.14691162 1.5625,2.86464692 L1.562,15.625 L8.59375,15.625 C9.02500151,15.625 9.375,15.9749985 9.375,16.40625 L9.375,23.437 L22.1353531,23.4375 C22.8530884,23.4375 23.4375,22.8530884 23.4375,22.1353531 L23.4375,2.86464692 C23.4375,2.14691162 22.8530884,1.5625 22.1353531,1.5625 Z M20.0521469,4.16660308 L20.0670644,4.16597403 C20.0925279,4.16644395 20.1179731,4.16815079 20.1433024,4.17109454 L20.0521469,4.16660308 C20.0937776,4.16660308 20.1346512,4.16986469 20.1745257,4.17614616 C20.1993704,4.17925923 20.2242048,4.18439527 20.2487909,4.19074575 C20.2587158,4.19417103 20.2684319,4.19689957 20.2780697,4.19980941 C20.3013614,4.205912 20.3244364,4.21403168 20.3471655,4.22326477 C20.3549446,4.22746075 20.3633312,4.23105154 20.371641,4.23478337 C20.3965504,4.24484867 20.4204836,4.25707142 20.4438664,4.27060546 C20.4489746,4.27482416 20.4544435,4.27808762 20.4598687,4.28141547 C20.5117997,4.31190134 20.5605689,4.35004073 20.605278,4.39472197 C20.6746362,4.46412345 20.7282311,4.54330797 20.7660628,4.62782647 C20.7689485,4.63666876 20.7725392,4.64505545 20.775986,4.65351598 C20.7859683,4.67556356 20.794088,4.69863861 20.8010943,4.72197609 C20.8031004,4.73156807 20.805829,4.74128424 20.8083722,4.75107484 C20.8156047,4.77579518 20.8207408,4.80062963 20.8246624,4.8256173 C20.8254802,4.83579819 20.8269041,4.84618907 20.8281213,4.85664272 C20.8318492,4.88202686 20.833556,4.90747215 20.834026,4.93293562 C20.8333483,4.93769335 20.8333969,4.94276756 20.8333969,4.94785308 L20.8333969,11.71875 C20.8333969,12.1500015 20.4833984,12.5 20.0521469,12.5 C19.6208954,12.5 19.2708969,12.1500015 19.2708969,11.71875 L19.27,6.835 L11.7509842,14.3541336 C11.5978241,14.5072937 11.397934,14.5833969 11.1978531,14.5833969 C10.9979629,14.5833969 10.7978821,14.5072937 10.6458664,14.3541336 C10.3406906,14.0489578 10.3406906,13.5541916 10.6458664,13.2490158 L18.164,5.729 L13.28125,5.72910308 C12.8499985,5.72910308 12.5,5.37910459 12.5,4.94785308 C12.5,4.51660156 12.8499985,4.16660308 13.28125,4.16660308 L20.0521469,4.16660308 Z" id="path-1"></path>
    </defs>
    <g id="Icon-/-Maximize" stroke="none" stroke-width="1" fill="none" fill-rule="evenodd">
        <mask id="mask-2" fill="white">
            <use xlink:href="#path-1"></use>
        </mask>
        <g id="Shape" fill-rule="nonzero"></g>
        <g id="Colors-/-Dark-Blue" mask="url(#mask-2)" fill="#0D1E45" fill-rule="nonzero">
            <rect id="Black" x="0" y="0" width="25" height="25"></rect>
        </g>
    </g>
</svg>