<?xml version="1.0" encoding="UTF-8"?>
<svg width="25px" height="25px" viewBox="0 0 25 25" version="1.1" xmlns="http://www.w3.org/2000/svg" xmlns:xlink="http://www.w3.org/1999/xlink">
    <!-- Generator: Sketch 64 (93537) - https://sketch.com -->
    <title>Icon / Minimize</title>
    <desc>Created with Sketch.</desc>
    <defs>
        <path d="M2.86464692,25 C1.28440859,25 -2.84217094e-14,23.7155914 -2.84217094e-14,22.1353531 L-2.84217094e-14,2.86464692 C-2.84217094e-14,1.28440859 1.28440859,0 2.86464692,0 L22.1353531,0 C23.7155914,0 25,1.28440859 25,2.86464692 L25,22.1353531 C25,23.7155914 23.7155914,25 22.1353531,25 L2.86464692,25 Z M1.5625,22.1353531 C1.5625,22.8530884 2.14691162,23.4375 2.86464692,23.4375 L7.812,23.437 L7.8125,17.1875 L1.562,17.187 L1.5625,22.1353531 Z M22.1353531,1.5625 L2.86464692,1.5625 C2.14691162,1.5625 1.5625,2.14691162 1.5625,2.86464692 L1.562,15.625 L8.59375,15.625 C9.02500151,15.625 9.375,15.9749985 9.375,16.40625 L9.375,23.437 L22.1353531,23.4375 C22.8530884,23.4375 23.4375,22.8530884 23.4375,22.1353531 L23.4375,2.86464692 C23.4375,2.14691162 22.8530884,1.5625 22.1353531,1.5625 Z M20.605278,4.39472197 C20.9104538,4.70008848 20.9104538,5.19485474 20.605278,5.50003052 L13.084,13.02 L17.96875,13.0208969 C18.4000015,13.0208969 18.75,13.3708954 18.75,13.8021469 C18.75,14.2333984 18.4000015,14.5833969 17.96875,14.5833969 L11.1978531,14.5833969 C11.1590689,14.5833969 11.1209419,14.5805661 11.0836676,14.5750999 L11.1978531,14.5833969 C11.1497439,14.5833969 11.1016237,14.5789886 11.0541652,14.5701586 C11.0265128,14.5650432 10.9994325,14.5584539 10.9729428,14.5504955 C10.9608439,14.5468846 10.9480461,14.5426997 10.9353429,14.5381746 C10.9110586,14.5294565 10.887769,14.5198091 10.865077,14.5091011 C10.8545177,14.5041958 10.8441342,14.4990089 10.8338474,14.4935747 C10.8075925,14.479643 10.7821204,14.4642668 10.7576471,14.4475353 C10.7502387,14.4424098 10.7426558,14.4370033 10.7351507,14.4314437 C10.6452939,14.3653455 10.570215,14.2805266 10.5155348,14.1827719 C10.5093242,14.1707506 10.5030705,14.1588383 10.4971453,14.1468053 C10.4861419,14.1255426 10.4764887,14.1034633 10.4678537,14.0808819 C10.465019,14.0720356 10.4617666,14.0630275 10.4586851,14.0539741 C10.4491909,14.0277606 10.4415565,14.0006959 10.4353853,13.973081 C10.4343667,13.9660469 10.4330311,13.9596849 10.4317754,13.9533103 C10.4262974,13.928269 10.4224885,13.9020977 10.4200105,13.8755418 C10.4190909,13.8608674 10.4181361,13.8464858 10.417577,13.8320917 C10.4167978,13.8224438 10.4166031,13.812318 10.4166031,13.8021469 L10.4166031,7.03125 C10.4166031,6.59999849 10.7666016,6.25 11.1978531,6.25 C11.6291046,6.25 11.9791031,6.59999849 11.9791031,7.03125 L11.979,11.915 L19.4999695,4.39472197 C19.8051453,4.08954619 20.2999115,4.08954619 20.605278,4.39472197 Z" id="path-1"></path>
    </defs>
    <g id="Icon-/-Minimize" stroke="none" stroke-width="1" fill="none" fill-rule="evenodd">
        <mask id="mask-2" fill="white">
            <use xlink:href="#path-1"></use>
        </mask>
        <g id="Shape" fill-rule="nonzero"></g>
        <g id="Colors-/-Dark-Blue" mask="url(#mask-2)" fill="#0D1E45" fill-rule="nonzero">
            <rect id="Black" x="0" y="0" width="25" height="25"></rect>
        </g>
    </g>
</svg>