<svg width="44" height="44" viewBox="0 0 44 44" fill="none" xmlns="http://www.w3.org/2000/svg">
<path d="M22 0C9.8407 0 0 9.83959 0 22C0 34.1593 9.83959 44 22 44C34.1593 44 44 34.1604 44 22C44 9.8407 34.1604 0 22 0ZM22 41.0667C11.4867 41.0667 2.9333 32.5134 2.9333 22C2.9333 11.4866 11.4867 2.9333 22 2.9333C32.5133 2.9333 41.0667 11.4867 41.0667 22C41.0667 32.5133 32.5133 41.0667 22 41.0667Z" fill="#0D1E45"/>
<path d="M31.9125 20.5333H23.4667V12.0875C23.4667 11.2776 22.8101 10.6208 22 10.6208C21.19 10.6208 20.5333 11.2775 20.5333 12.0875V20.5333H12.0875C11.2776 20.5333 10.6208 21.19 10.6208 22C10.6208 22.8101 11.2775 23.4667 12.0875 23.4667H20.5333V31.9125C20.5333 32.7224 21.19 33.3792 22 33.3792C22.8101 33.3792 23.4667 32.7225 23.4667 31.9125V23.4667H31.9125C32.7224 23.4667 33.3792 22.8101 33.3792 22C33.3792 21.19 32.7224 20.5333 31.9125 20.5333Z" fill="#0D1E45"/>
</svg>
