<?xml version="1.0" encoding="UTF-8"?>
<svg width="25px" height="25px" viewBox="0 0 25 25" version="1.1" xmlns="http://www.w3.org/2000/svg" xmlns:xlink="http://www.w3.org/1999/xlink">
    <!-- Generator: Sketch 64 (93537) - https://sketch.com -->
    <title>Icon / Strikethrough</title>
    <desc>Created with Sketch.</desc>
    <defs>
        <path d="M2.93755869,13.4373826 C2.41995305,13.4373826 2,13.0173709 2,12.5 C2,11.9823944 2.41995305,11.5623826 2.93755869,11.5623826 L6.80732363,11.5626151 C5.38586145,10.339291 4.50005869,8.62006959 4.50005869,6.71877934 C4.50005869,3.01361502 7.86373239,0 12.0001174,0 C16.1365023,0 19.5001761,3.01361502 19.5001761,6.71877934 C19.5001761,7.23644366 19.080223,7.65639671 18.5625587,7.65639671 C18.0451878,7.65639671 17.6252347,7.23644366 17.6252347,6.71877934 C17.6252347,4.04747653 15.1015258,1.87494131 12.0001174,1.87494131 C8.89870892,1.87494131 6.375,4.04747653 6.375,6.71877934 C6.375,9.39014085 8.89870892,11.5623826 12.0001174,11.5623826 L21.0626761,11.5623826 C21.5802817,11.5623826 22.0002347,11.9823944 22.0002347,12.5 C22.0002347,13.0173709 21.5802817,13.4373826 21.0626761,13.4373826 L17.192767,13.4371389 C18.6143134,14.660531 19.5001761,16.3798661 19.5001761,18.2812207 C19.5001761,21.9862089 16.1365023,25 12.0001174,25 C7.86373239,25 4.50005869,21.9862089 4.50005869,18.2812207 C4.50005869,17.7637911 4.92001174,17.343838 5.43767606,17.343838 C5.95504695,17.343838 6.375,17.7637911 6.375,18.2812207 C6.375,20.9525235 8.89870892,23.1250587 12.0001174,23.1250587 C15.1015258,23.1250587 17.6252347,20.9525235 17.6252347,18.2812207 C17.6252347,15.6098592 15.1015258,13.4373826 12.0001174,13.4373826 L2.93755869,13.4373826 Z" id="path-1"></path>
    </defs>
    <g id="Icon-/-Strikethrough" stroke="none" stroke-width="1" fill="none" fill-rule="evenodd">
        <mask id="mask-2" fill="white">
            <use xlink:href="#path-1"></use>
        </mask>
        <g id="Fill-2"></g>
        <g id="Colors-/-Dark-Blue" mask="url(#mask-2)" fill="#0D1E45" fill-rule="nonzero">
            <rect id="Black" x="0" y="0" width="25" height="25"></rect>
        </g>
    </g>
</svg>