<?xml version="1.0" encoding="UTF-8"?>
<svg width="25px" height="25px" viewBox="0 0 25 25" version="1.1" xmlns="http://www.w3.org/2000/svg" xmlns:xlink="http://www.w3.org/1999/xlink">
    <!-- Generator: Sketch 64 (93537) - https://sketch.com -->
    <title>Icon / Zoom In</title>
    <desc>Created with Sketch.</desc>
    <defs>
        <path fill="#0D1E45" d="M24.8474121,24.1109375 L17.2406738,16.5041504 C18.8206543,14.7499023 19.7916992,12.4369629 19.7916992,9.89580078 C19.7916504,4.43930664 15.3523926,0 9.89584961,0 C4.43930664,0 0,4.43930664 0,9.89584961 C0,15.3523926 4.43930664,19.7916992 9.89584961,19.7916992 C12.4370117,19.7916992 14.7499023,18.8206543 16.5041992,17.2406738 L24.1109375,24.8474121 C24.2126465,24.9491211 24.3459473,25 24.4791992,25 C24.6124512,25 24.7457031,24.9491211 24.8474609,24.8474121 C25.0508789,24.6439453 25.0508789,24.3143555 24.8474121,24.1109375 Z M9.89584961,18.75 C5.0140625,18.75 1.04169922,14.778125 1.04169922,9.89584961 C1.04169922,5.01357422 5.0140625,1.04165039 9.89584961,1.04165039 C14.7776367,1.04165039 18.75,5.01352539 18.75,9.89584961 C18.75,14.7781738 14.7776367,18.75 9.89584961,18.75 Z M10.0769231,2.5 C10.3530655,2.5 10.5769231,2.72385763 10.5769231,3 L10.576,9.423 L17,9.42307692 C17.2761424,9.42307692 17.5,9.64693455 17.5,9.92307692 L17.5,10.0769231 C17.5,10.3530655 17.2761424,10.5769231 17,10.5769231 L10.576,10.576 L10.5769231,17 C10.5769231,17.2761424 10.3530655,17.5 10.0769231,17.5 L9.92307692,17.5 C9.64693455,17.5 9.42307692,17.2761424 9.42307692,17 L9.423,10.576 L3,10.5769231 C2.72385763,10.5769231 2.5,10.3530655 2.5,10.0769231 L2.5,9.92307692 C2.5,9.64693455 2.72385763,9.42307692 3,9.42307692 L9.423,9.423 L9.42307692,3 C9.42307692,2.72385763 9.64693455,2.5 9.92307692,2.5 L10.0769231,2.5 Z" id="path-1"></path>
    </defs>
    <g id="Icon-/-Zoom-In" stroke="none" stroke-width="1" fill="none" fill-rule="evenodd">
        <mask id="mask-2" fill="white">
            <use xlink:href="#path-1"></use>
        </mask>
        <use id="Shape" fill="#0D1E45" fill-rule="nonzero" xlink:href="#path-1"></use>
        <g id="Colors-/-Dark-Blue" mask="url(#mask-2)" fill="#0D1E45" fill-rule="nonzero">
            <rect id="Black" x="0" y="0" width="25" height="25"></rect>
        </g>
    </g>
</svg>
